<?xml version="1.0" ?>
<!-- Uploaded to: SVG Repo, www.svgrepo.com, Generator: SVG Repo Mixer Tools -->
<svg fill="#000000" width="800px" height="800px" viewBox="0 0 100 100" version="1.1" xml:space="preserve" xmlns="http://www.w3.org/2000/svg" xmlns:xlink="http://www.w3.org/1999/xlink">
<style type="text/css">
	.st0{display:none;}
	.st1{display:inline;fill:none;}
</style>
<g class="st0" id="bounding_squares">
<rect class="st1" height="100" id="XMLID_12_" width="100"/>
</g>
<g id="icons">
<path d="M92.0390625,82.9609375L76.5802002,67.5020752C82.1053467,66.7288818,86.375,61.9849243,86.375,56.25   c0-6.2724609-5.1025391-11.375-11.375-11.375S63.625,49.9775391,63.625,56.25   c0,4.4204712,2.5395508,8.2504883,6.2315674,10.1323853c-0.1901855,7.2421875-3.0914917,14.0244141-8.2344971,19.1674194   L56.25,90.921875L38.9140625,73.5859375c-0.78125-0.78125-2.046875-0.78125-2.828125,0L19.5458984,90.1259766   C18.4980469,91.1728516,17.1064453,91.75,15.625,91.75H12.5c-1.1044922,0-2,0.8955078-2,2s0.8955078,2,2,2h3.125   c2.5498047,0,4.9462891-0.9931641,6.7490234-2.7958984L37.5,77.828125l17.3359375,17.3359375   C55.2265625,95.5546875,55.7382813,95.75,56.25,95.75s1.0234375-0.1953125,1.4140625-0.5859375l6.7861328-6.7861328   c5-4.9990234,8.1513672-11.3554688,9.1122818-18.2373047L87.796875,84.375l-5.7509766,5.7509766   C80.9980469,91.1728516,79.6064453,91.75,78.125,91.75c-1.1044922,0-2,0.8955078-2,2s0.8955078,2,2,2   c2.5498047,0,4.9462891-0.9931641,6.7490234-2.7958984l7.1650391-7.1650391   C92.8203125,85.0078125,92.8203125,83.7421875,92.0390625,82.9609375z M75,48.875c4.0664063,0,7.375,3.3085938,7.375,7.375   S79.0664063,63.625,75,63.625s-7.375-3.3085938-7.375-7.375S70.9335938,48.875,75,48.875z"/>
</g>
</svg>