<!DOCTYPE svg PUBLIC "-//W3C//DTD SVG 1.1//EN" "http://www.w3.org/Graphics/SVG/1.1/DTD/svg11.dtd">
<!-- Uploaded to: SVG Repo, www.svgrepo.com, Transformed by: SVG Repo Mixer Tools -->
<svg fill="#8080ff" width="800px" height="800px" viewBox="-0.64 -0.64 33.28 33.28" xmlns="http://www.w3.org/2000/svg" transform="rotate(0)" stroke="#8080ff">
<g id="SVGRepo_bgCarrier" stroke-width="0"/>
<g id="SVGRepo_tracerCarrier" stroke-linecap="round" stroke-linejoin="round" stroke="#CCCCCC" stroke-width="0.576"/>
<g id="SVGRepo_iconCarrier"> <title/> <g data-name="Layer 2" id="Layer_2"> <path d="M18,11a1,1,0,0,1-1,1,5,5,0,0,0-5,5,1,1,0,0,1-2,0,5,5,0,0,0-5-5,1,1,0,0,1,0-2,5,5,0,0,0,5-5,1,1,0,0,1,2,0,5,5,0,0,0,5,5A1,1,0,0,1,18,11Z"/> <path d="M19,24a1,1,0,0,1-1,1,2,2,0,0,0-2,2,1,1,0,0,1-2,0,2,2,0,0,0-2-2,1,1,0,0,1,0-2,2,2,0,0,0,2-2,1,1,0,0,1,2,0,2,2,0,0,0,2,2A1,1,0,0,1,19,24Z"/> <path d="M28,17a1,1,0,0,1-1,1,4,4,0,0,0-4,4,1,1,0,0,1-2,0,4,4,0,0,0-4-4,1,1,0,0,1,0-2,4,4,0,0,0,4-4,1,1,0,0,1,2,0,4,4,0,0,0,4,4A1,1,0,0,1,28,17Z"/> </g> </g>
</svg>