<svg fill="#000000" viewBox="-3.2 -3.2 38.40 38.40" xmlns="http://www.w3.org/2000/svg" transform="matrix(1, 0, 0, 1, 0, 0)rotate(-45)"><g id="SVGRepo_bgCarrier" stroke-width="0" transform="translate(0,0), scale(1)"><path transform="translate(-3.2, -3.2), scale(1.2)" d="M16,27.976469866343233C18.192184014018704,28.11630104244099,20.51856829291252,30.41514182258778,22.38129187359708,29.25088911329751C24.341268802230918,28.02585042641421,23.211599901357793,24.684877148891704,24.419308111402053,22.714174171644906C25.43309140508277,21.0599122079323,28.302946686118524,20.798110992010557,28.722318996449886,18.903786290049528C29.142566562183926,17.00550801774306,27.52577504940021,15.226759641280939,26.432882521997865,13.618762645274938C25.541156550089898,12.30674646057587,24.077700840634957,11.57730336873091,22.97059000931977,10.441139962757937C21.976180301319342,9.420635159790557,21.475001210749753,7.912194536271141,20.21814254857447,7.240936744092947C18.952546262296064,6.5650123983547894,17.43281857103364,6.643225776979501,16,6.718316545415867C14.610348585601104,6.791145021173699,13.376029837649467,7.55359790330348,11.989533011833739,7.672179488825739C9.80290262331959,7.8591933309011495,7.390733520078653,6.522939541225214,5.488460431856927,7.617326918221458C3.7287946819877735,8.629671568583756,2.4405735201427685,10.975151155609101,2.7648787911659074,12.979169951320943C3.1257216382214423,15.208969810928748,6.939617455035073,15.768221528895188,7.171111493036406,18.01513618783263C7.452331530684794,20.74469860090638,3.340283147394029,22.875290365762456,4.057336945592038,25.523955978279396C4.642002918447138,27.683605171968537,7.807407924045909,28.011000711053804,9.999063370004528,28.46107331166028C11.989821021349185,28.869890069317197,13.971820868070843,27.84709994504968,16,27.976469866343233" fill="#A1EEBD" strokewidth="0"></path></g><g id="SVGRepo_tracerCarrier" stroke-linecap="round" stroke-linejoin="round" stroke="#CCCCCC" stroke-width="0.32"></g><g id="SVGRepo_iconCarrier"><path d="M 16 2 C 11.514 2 8 5.4428906 8 9.8378906 C 8 11.976891 8.8556406 14.573078 10.181641 16.455078 L 10.316406 16.646484 C 11.105406 17.763484 12 19.03 12 20 C 12 20.552 12.447 21 13 21 C 13.553 21 14 20.552 14 20 C 14 18.395 12.912172 16.853188 11.951172 15.492188 L 11.816406 15.302734 C 10.729406 13.760734 10 11.564891 10 9.8378906 C 10 6.5648906 12.636 4 16 4 C 19.364 4 22 6.5648906 22 9.8378906 C 22 11.563891 21.270594 13.760734 20.183594 15.302734 L 20.056641 15.482422 C 19.237641 16.637422 18 18.383 18 20 C 18 20.552 18.447 21 19 21 C 19.553 21 20 20.552 20 20 C 20 19.02 21.0985 17.470672 21.6875 16.638672 L 21.816406 16.455078 C 23.143406 14.573078 24 11.976891 24 9.8378906 C 24 5.4428906 20.486 2 16 2 z M 16.216797 10 C 15.754797 10.079 15.711703 13.194906 15.470703 14.378906 C 14.987703 13.711906 14.915609 12.617344 14.474609 12.527344 C 14.138609 12.527344 13.960484 13.593469 13.771484 14.230469 L 12.123047 14.478516 C 11.336047 14.786516 14.484109 14.866953 14.662109 14.876953 C 14.998109 15.722953 15.587125 17.514422 15.828125 16.857422 L 16.320312 13.552734 C 16.824313 14.597734 17.003859 16.050781 17.255859 16.050781 C 17.581859 16.040781 17.622281 15.385672 17.863281 14.638672 C 18.713281 14.628672 20.099141 14.618 19.994141 14.25 C 19.994141 14.25 17.916625 14.121109 17.390625 13.912109 C 17.264625 13.354109 16.699797 9.96 16.216797 10 z M 13 23 C 12.45 23 12 23.45 12 24 C 12 24.55 12.45 25 13 25 L 19 25 C 19.55 25 20 24.55 20 24 C 20 23.45 19.55 23 19 23 L 13 23 z M 14 27 C 13.45 27 13 27.45 13 28 C 13 28.55 13.45 29 14 29 L 18 29 C 18.55 29 19 28.55 19 28 C 19 27.45 18.55 27 18 27 L 14 27 z"></path></g></svg>