<svg fill="#000000" viewBox="-51.2 -51.2 614.40 614.40" xmlns="http://www.w3.org/2000/svg" transform="rotate(-45)"><g id="SVGRepo_bgCarrier" stroke-width="0"><path transform="translate(-51.2, -51.2), scale(19.2)" d="M16,26.78680332279519C18.173583539174352,26.55799074285011,20.02723113027416,29.2739443339452,22.15788517176535,28.786980316806265C24.1959223720446,28.3211840106955,25.84569251078042,26.36515705581518,26.513199269609554,24.383996649531547C27.18324677091203,22.39529531826974,26.068322079101396,20.287478441670906,25.718778281224356,18.218247721734176C25.475584098654625,16.778585863793815,25.195285214481277,15.394184048948773,24.759217035704353,14.00076587083345C24.349664148731332,12.69207501609499,23.79079649021082,11.488340851748989,23.22215995381319,10.24051962658181C22.510416406878143,8.678663066383075,22.31263709358821,6.7500887680619766,20.96859875201172,5.682598380465061C19.618802701552376,4.610534984273899,17.660629126920956,4.042236529648012,16,4.504383915349058C14.295293364711672,4.978797920327079,13.79414150020989,7.341349167437845,12.205796890036256,8.121256059218979C10.63495955105171,8.892566553613051,8.643311045718518,8.102188142829672,7.078240788839963,8.885134447083399C5.250477734047543,9.799496165039345,2.8140378611436834,10.906656504017405,2.579603055310807,12.936881973649182C2.3339602363894922,15.064169795243904,5.570220573740501,16.184760399896973,5.9929264751934355,18.284049229779534C6.4323038303973386,20.466133678358254,4.389872710514938,22.648296957625917,4.9678825797397135,24.79782006568357C5.565332939514634,27.01963914288369,6.92018199362041,29.744473025635838,9.184422050702572,30.152693441722707C11.709676974521184,30.6079722945556,13.44813268084465,27.055437738933286,16,26.78680332279519" fill="#a1eebd" strokewidth="0"></path></g><g id="SVGRepo_tracerCarrier" stroke-linecap="round" stroke-linejoin="round"></g><g id="SVGRepo_iconCarrier"> <g id="Mental_sustainability"> <path d="M391.94,156.27h0a76.16,76.16,0,0,0-134.59-48.73,76.15,76.15,0,0,0-134.58,48.73h0V158a83.66,83.66,0,0,0,32.64,66.3l88.35,68a21.7,21.7,0,0,0,4.52,2.68v48.36c-24.7-22.3-58.3-24.28-76.41-23.42a23.88,23.88,0,0,0-22.8,22.8c-.88,18.58,1.22,53.46,25.18,78.31,17.41,18.06,42.89,27.39,75.77,27.76.68,0,16,0,17.61-.05,31.49-.87,56-10.18,72.89-27.71,24-24.85,26.05-59.73,25.17-78.31a23.87,23.87,0,0,0-22.8-22.8c-18.17-.86-51.89,1.14-76.61,23.6V294.78a21.58,21.58,0,0,0,4.19-2.56l89.43-70.11a83.66,83.66,0,0,0,32.05-65.72h0v-.12ZM167,343.61a6,6,0,0,1,5.68-5.68c15.67-.74,45,.88,65,20.16,13.15,12.67,20.52,31.34,22,55.57a74.26,74.26,0,0,0-35.06-27.32l-6.08,18.39c.94.33,19.33,6.81,28.64,26-26.35-.8-46.55-8.25-60-22.18C167.92,388.58,166.3,359.29,167,343.61Zm169.09-5.82c2.12,0,4.1.06,5.9.14a6,6,0,0,1,5.67,5.68c.75,15.68-.88,45-20.15,65C315.83,420.73,299,428,277.33,430.12a24.75,24.75,0,0,0,.6-5.14c.24-21.48-3.22-39.92-10.31-55.16a61.43,61.43,0,0,1,9.45-11.73C294.76,341,319.75,337.79,336.13,337.79Zm15-181.47a35.38,35.38,0,0,0-35.33-35.27v-17a52.41,52.41,0,0,1,52.33,52.24Z"></path> </g> </g></svg>